# xmcd CD database file
#
# Track frame offsets:
#	150
#	31020
#	51372
#	76275
#	101979
#	120117
#	147407
#	162863
#	191748
#	217251
#	237770
#	252733
#	268297
#	288544
#	308556
#	330406
#
# Disc length: 4635 seconds
#
# Revision: 0
# Processed by: cddbd v1.5.2PL0 Copyright (c) Steve Scherf et al.
# Submitted via: CDex 1.51
#
DISCID=ed121910
DTITLE=Billie Holiday - Kind Of Holiday [CD8] - The 50's Vol.3
DYEAR=2009
DGENRE=Jazz
TTITLE0=Embraceable You (Gershwin)
TTITLE1=Stars Fell On Alabama (Perkins/Parish)
TTITLE2=Just One Of Those Things (Nichols/Holiday)
TTITLE3=One For My Baby (Gershwin)
TTITLE4=Comes Love (Young/Mercer)
TTITLE5=I Didn't Know What Time It Was (Rodgers/Hart)
TTITLE6=Let's Call The Whole Thing Off (Gershwin)
TTITLE7=Body and Soul (Green/Heyman/Sour/Eyton)
TTITLE8=Gee Baby Ain't I Good To You (Redman/Razaf)
TTITLE9=Everything I Have Is Yours (Lane/Adamson)
TTITLE10=Say It Isn't So (Van Heusen/DeLange)
TTITLE11=I Wished On The Moon (Rainger/Parker)
TTITLE12=Speak Low (Weill/Nash)
TTITLE13=We'll Be Together Again (Fischer/Laine)
TTITLE14=Sophisticated Lady (Ellington/Parish/Mills)
TTITLE15=But Not For Me (Gershwin)
EXTD=YEAR: 2009
EXTT0=
EXTT1=
EXTT2=
EXTT3=
EXTT4=
EXTT5=
EXTT6=
EXTT7=
EXTT8=
EXTT9=
EXTT10=
EXTT11=
EXTT12=
EXTT13=
EXTT14=
EXTT15=
PLAYORDER=
